<svg xmlns="http://www.w3.org/2000/svg" version="1.1" xmlns:xlink="http://www.w3.org/1999/xlink" xmlns:svgjs="http://svgjs.dev/svgjs" width="100%" height="100%" viewBox="0 0 1000 600"><rect width="1000" height="600" x="0" y="0" fill="#77b6ea"/><g><rect width="333.3333333333333" height="333.3333333333333" rx="13.333333333333334" ry="13.333333333333334" y="149.66411882242187" fill="#37393a" transform="matrix(0.9808393887474063,0,0,0.9808393887474063,0,-10.269663030287603)" x="127.4418716430664"/><path d="M230.36402072339808 391.330774774071L230.36402072339808 391.330774774071Q221.66160481359697 391.330774774071 212.24542608469545 389.84834430363173Q202.80179493967466 388.36591383319245 194.29154594270827 385.4010528923138L194.29154594270827 385.4010528923138L194.29154594270827 371.5650351682136Q200.41343473730024 373.6514187932763 206.70003802860765 374.9965871831194Q212.9866413199151 376.3143031568432 218.99872045003008 377.0006135598244Q225.03825199626428 377.7143763789248 230.5561876362328 377.7143763789248L230.5561876362328 377.7143763789248Q248.7571395232932 377.7143763789248 257.4595554330943 370.82381993299396Q266.1345189267762 363.96071590318235 266.1345189267762 350.81100858206327L266.1345189267762 350.81100858206327Q266.1345189267762 339.6653276376492 259.57339147427626 333.76305817201126Q253.0122640217764 327.8882411224925 237.19967233709045 323.74292628848633L237.19967233709045 323.74292628848633L229.29337649474746 321.6565426634236Q210.59828111754064 316.9347270909132 201.31936446923538 307.29892903305773Q192.01299540481082 297.6631309752022 192.01299540481082 281.8505392905162L192.01299540481082 281.8505392905162Q192.01299540481082 262.9632770004747 205.10779789369138 252.14702504949162Q218.20260038257192 241.33077309850853 244.11768119914055 241.33077309850853L244.11768119914055 241.33077309850853Q252.6004777799877 241.33077309850853 260.9185598641194 242.45632215939764Q269.2091895321318 243.58187122028673 276.0173887297049 245.77806450982644L276.0173887297049 245.77806450982644L276.0173887297049 259.61408223392664Q268.5228791291506 257.2257220315522 260.5616784545692 256.1001729706631Q252.6004777799877 254.94717149365476 244.50201502481 254.94717149365476L244.50201502481 254.94717149365476Q231.95626085831438 254.94717149365476 223.9401553514944 258.02184209901037Q215.95150226079372 261.096512704366 212.08071158797998 266.91642492164624Q208.23737333128548 272.73633713892644 208.23737333128548 280.94460955858113L208.23737333128548 280.94460955858113Q208.23737333128548 291.733409093445 214.24945246140044 297.6631309752022Q220.28898400763467 303.59285285695944 235.11328871202772 307.5460007781309L235.11328871202772 307.5460007781309L243.1293942188477 309.5225747387167Q256.5536257011592 312.98157916974174 265.2560416109603 318.362252729114Q273.95845752076144 323.74292628848633 278.21358201924465 331.5119600502331Q282.4412541016086 339.25354139586057 282.4412541016086 349.8227216017704L282.4412541016086 349.8227216017704Q282.4412541016086 363.0822385873665 276.3193653070166 372.30625040343324Q270.19747651242466 381.55771463561933 258.5301996617449 386.4442447048452Q246.8629228110652 391.330774774071 230.36402072339808 391.330774774071ZM322.46687680346986 389.4640104779623L306.4621182059492 389.4640104779623L306.4621182059492 243.19753739461729L396.2040664997658 243.19753739461729L396.2040664997658 256.9237454542405L322.46687680346986 256.9237454542405L322.46687680346986 389.4640104779623ZM386.62317327414877 322.45266273088174L317.7450612309595 322.45266273088174L317.7450612309595 308.8088119196163L386.62317327414877 308.8088119196163L386.62317327414877 322.45266273088174Z " fill="#c7d3dd" transform="matrix(0.9808393887474063,0,0,0.9808393887474063,0,-10.269663030287603)"/><path d="M580.3868289504755 391.33076842690906L580.3868289504755 391.33076842690906Q574.533709324438 391.33076842690906 568.5149353693616 391.0270688236713Q562.4961614142853 390.7233692204335 556.4497784043692 390.22640623331705Q550.3757863396133 389.7294432462007 544.108530890979 388.92878065584654L544.108530890979 388.92878065584654L544.108530890979 245.41691359856833Q550.1825229557348 244.11928802109776 556.5878236785683 243.23579826622415Q562.9931244014017 242.32469945651079 569.9506062210313 241.82773646939438Q576.9080880406608 241.330773482278 584.5834052861251 241.330773482278L584.5834052861251 241.330773482278Q604.3514885514215 241.330773482278 616.830781339011 245.66539509212652Q629.3100741266003 250.00001670197508 635.1631937526379 258.69686897651195Q641.0163133786754 267.39372125104876 641.0163133786754 280.59084946447297L641.0163133786754 280.59084946447297Q641.0163133786754 289.03922024545165 637.9517082914576 296.2451835586393Q634.8594941494001 303.451146871827 628.2057119330084 308.3379495784716Q621.5519297166167 313.1971432302763 610.8120073839347 314.88129557550405L610.8120073839347 314.88129557550405L611.0052707678133 313.50084283351407Q628.3161481523675 315.48869478197963 636.7645189333463 325.1242549210697Q645.2128897143249 334.7598150601598 645.2128897143249 350.0828404962485L645.2128897143249 350.0828404962485Q645.2128897143249 360.10492740309576 641.6789306948306 367.80785370339987Q638.1449716753363 375.5107800037039 630.4420453750322 380.72889136842605Q622.739119074728 385.94700273314817 610.3702625064979 388.6526901074485Q598.0014059382677 391.33076842690906 580.3868289504755 391.33076842690906ZM583.6723064764117 378.4925579264023L583.6723064764117 378.4925579264023Q601.0660110254854 378.4925579264023 611.170925096852 375.3175166198253Q621.2482301133789 372.1424753132483 625.5828517232273 365.7371745904149Q629.8898642782361 359.33187386758135 629.8898642782361 349.5858775091321L629.8898642782361 349.5858775091321Q629.8898642782361 334.9806874988781 620.696049016583 328.02320567924863Q611.5022337549296 321.06572385961914 591.6237142702739 321.06572385961914L591.6237142702739 321.06572385961914L557.7474039818399 321.06572385961914L557.7474039818399 308.03424997523376L588.7523725669348 308.03424997523376Q602.0599369997182 308.03424997523376 610.1769991226192 305.0524720525354Q618.2664521906805 302.0706941298371 621.8832383746943 296.10713828444034Q625.5276336135478 290.14358243904366 625.5276336135478 281.19824867094854L625.5276336135478 281.19824867094854Q625.5276336135478 266.78632204457324 616.5270817357732 260.4638484862591Q607.5265298579985 254.1689839827848 585.963858028115 254.1689839827848L585.963858028115 254.1689839827848Q577.9020140148936 254.1689839827848 571.7451947856182 254.7211650795808Q565.588375556343 255.245737121537 560.0113464787034 256.23966309576974L560.0113464787034 256.23966309576974L560.0113464787034 377.1121051844123Q565.7816389402216 377.91276777476645 571.4967132920601 378.21646737800427Q577.2117876438986 378.4925579264023 583.6723064764117 378.4925579264023ZM671.4414918121345 390.0331428494385L655.3454128405314 390.0331428494385L708.1063166393883 242.93209866298636L730.883786882223 242.93209866298636L783.64469068108 390.0331428494385L767.2449121062391 390.0331428494385L717.9627492171968 250.57980685361088L720.7512637560166 250.57980685361088L671.4414918121345 390.0331428494385ZM755.9251996219211 342.43513230562405L682.9820767351707 342.43513230562405L686.7369081933834 328.79625921476304L752.1427591088686 328.79625921476304L755.9251996219211 342.43513230562405ZM839.7186810607129 390.0331428494385L823.5121658697506 390.0331428494385L823.5121658697506 317.8630734982024L827.1013429989246 330.0938847922336L770.0334266450587 242.93209866298636L787.8412670167295 242.93209866298636L834.6386149701898 314.6052050271061L829.1720221119094 314.6052050271061L875.389579913734 242.93209866298636L892.0930580918127 242.93209866298636L836.1295039315389 330.0938847922336L839.7186810607129 318.0839459369208L839.7186810607129 390.0331428494385Z " fill="#e8eef2" transform="matrix(0.9808393887474063,0,0,0.9808393887474063,0,-10.269663030287603)"/></g></svg>